<?xml version="1.0" standalone="no"?>
<svg xmlns="http://www.w3.org/2000/svg" height="1764pt" preserveAspectRatio="xMidYMid meet" viewBox="0 0 1920 1764" width="1920pt">
  <path d="m14490 17622c-15-12-29-43-41-92-11-40-20-74-21-76-2-1-26 2-55 7-64 12-123-8-123-40 0-25-8-25-80-6-123 33-142 17-159-126-21-187-18-197 79-221 51-13 55-17 58-45 2-17 10-37 17-43 12-10 11-19-11-56-32-54-28-61 61-100 35-16 63-33 61-39-2-5-43-145-91-310s-89-301-89-302c-2-2-265 63-397 98-35 9-36 11-43 65-8 70-30 109-74 130-108 51-352-91-352-205 0-44 42-142 86-203 106-144 222-145 280-3 11 25 26 45 34 45 21-1 400-97 407-103 4-5-144-525-153-536-2-2-93 19-204 48-110 28-202 51-205 51s-5 24-5 53c0 97-64 156-154 142-67-11-166-64-219-117l-50-50 6-58c8-95 103-247 178-285 71-37 149 0 186 90 10 25 24 45 31 45s96-21 198-46l185-47-6-26c-3-14-185-631-403-1370l-398-1345-4765-2225c-2620-1224-4785-2235-4809-2245-25-11-477-222-1005-469-528-248-1176-551-1440-674-1029-481-975-454-991-484-27-52-8-115 41-137 39-18 54-15 134 23 41 20 75 34 75 33 1-2 39-84 85-183s87-184 91-189c6-5 139 51 322 137 1259 586 11932 5574 11981 5599 22 11 40 18 42 16 1-2-55-196-125-433-123-415-128-430-151-428-321 22-378 24-521 14-432-30-790-145-1116-359-508-333-861-880-913-1417-8-88-7-136 5-240 76-652 20-1136-157-1368-72-92-36-167 80-167 73 0 181-26 250-60 113-56 191-161 229-310 33-128 18-374-38-595-59-238-177-540-262-670-225-344-621-500-1161-455l-156 13-25-24c-22-21-25-30-21-69 3-25 12-72 21-105 22-79 22-257 1-358-38-187-81-280-295-642-339-575-434-760-525-1018-38-106-38-107-70-107-33 0-33 0-64-97-132-413-130-776 5-1115 201-506 710-922 1509-1237 437-172 741-256 1545-427 336-71 318-70 615-64 39 1 225-1 415-5 369-8 494-1 686 36 214 41 393 107 522 192 84 56 253 221 342 332 191 240 313 493 383 790 73 310 87 593 63 1234-20 502-18 566 19 732 40 184 102 304 214 422 58 60 66 73 66 108 0 51-20 68-125 109-337 129-619 367-747 631-105 215-121 418-62 789 99 629 324 970 640 970 60 0 184-32 248-64 66-34 114-34 148 0 24 24 25 29 17 77-16 95-7 254 19 357 69 268 208 545 455 910 147 216 195 329 244 571 20 100 23 142 23 349-1 258-13 354-75 573-183 651-670 1181-1353 1472-77 32-117 55-117 65 0 26 321 1555 328 1561 4 4 1209 567 2677 1253 1469 686 2681 1255 2695 1265 31 22 36 51 15 90-28 54-42 51-295-68-128-61-235-110-236-108-1 1 94 51 211 112 118 60 213 110 212 111-23 20-422 294-428 294-5 0-518-238-1141-529s-1677-784-2343-1094c-665-311-1210-565-1211-564s113 547 252 1212c139 666 258 1233 264 1260l11 51 202-52 202-51 1-49c1-95 3-105 38-140 28-28 42-34 75-34 85 0 248 87 296 158 34 50 32 101-4 179-32 67-99 146-142 169-69 35-142 7-184-70-11-20-26-36-35-36-21 1-400 97-407 103-5 6 104 537 112 545 2 3 101-20 219-49l215-53-1-74c-1-79 14-114 63-140 54-29 182 10 281 86 95 71 109 132 59 239-32 67-99 146-142 169-69 35-142 7-184-70-11-20-26-36-35-36-18 1-430 106-436 112-2 2 9 62 24 132l27 128 85 2 85 1 3 58c2 43 7 57 18 57 8 0 22 13 31 29l17 28 55-14c82-22 93-13 157 122 30 64 54 125 54 138 0 45-26 65-109 84l-79 17 5 32c4 25 0 35-22 52-15 12-46 27-67 34-22 6-42 17-45 24s2 37 11 68c37 126 29 133-201 191-100 25-189 45-196 45-8 0-25-8-37-18zm3982-2832c37-54 95-177 87-183-11-9-4723-2207-4725-2205-1 2 14 80 33 173l36 170 2251 1052c1238 579 2258 1051 2266 1050s32-27 52-57zm-5575-2675-53-179-5641-2636c-3103-1450-5673-2650-5710-2667s-223-101-413-188c-190-86-369-168-398-181l-54-24-57 123-58 122 111 54c144 69 874 411 903 421 12 5 441 206 955 446 1667 782 10463 4892 10465 4890 1-1-22-82-50-181z" transform="matrix(.1 0 0 -.1 0 1764)" fill="#F35580" stroke="none" stroke-width="2" vector-effect="non-scaling-stroke"/>
</svg>
